<svg width="256" height="256" viewBox="0 0 256 256" fill="none" xmlns="http://www.w3.org/2000/svg">
  <rect width="256" height="256" rx="48" fill="url(#gradient)" />
  <defs>
    <linearGradient id="gradient" x1="32" y1="28" x2="228" y2="232" gradientUnits="userSpaceOnUse">
      <stop offset="0" stop-color="#0A2335" />
      <stop offset="0.45" stop-color="#0D3C4C" />
      <stop offset="1" stop-color="#0B2B3E" />
    </linearGradient>
  </defs>
  <circle cx="130" cy="104" r="44" fill="#1B3E54" />
  <path d="M86 198C86 166.281 111.281 141 143 141C174.719 141 200 166.281 200 198V210H86V198Z" fill="#103145" />
  <path d="M130 66C115.088 66 103 78.0883 103 93V110C103 124.912 115.088 137 130 137C144.912 137 157 124.912 157 110V93C157 78.0883 144.912 66 130 66Z" fill="#27485F" />
  <path d="M104 197C114.5 179 124 170 130 170C136 170 145.5 179 156 197H104Z" fill="#1E4258" />
  <circle cx="112" cy="102" r="6" fill="#F8FAFC" opacity="0.85" />
  <circle cx="148" cy="102" r="6" fill="#F8FAFC" opacity="0.85" />
  <path d="M118 126C122 130 126 132 130 132C134 132 138 130 142 126" stroke="#F8FAFC" stroke-width="3.8" stroke-linecap="round" opacity="0.85" />
  <path d="M112 88C118 82 126 79 134 80" stroke="#38BDF8" stroke-width="4" stroke-linecap="round" opacity="0.4" />
</svg>
