<svg width="440" height="300" viewBox="0 0 440 300" fill="none" xmlns="http://www.w3.org/2000/svg">
  <rect width="440" height="300" rx="28" fill="#0F172A"/>
  <circle cx="120" cy="144" r="56" fill="#1E293B"/>
  <path d="M120 96L140 136H100L120 96Z" fill="#38BDF8"/>
  <path d="M120 192L100 152H140L120 192Z" fill="#22D3EE"/>
  <path d="M78 144H162" stroke="#38BDF8" stroke-width="6" stroke-linecap="round" opacity="0.5"/>
  <path d="M120 102V186" stroke="#67E8F9" stroke-width="4" stroke-linecap="round"/>
  <rect x="208" y="88" width="200" height="144" rx="24" fill="#111C33"/>
  <path d="M224 120C224 110.059 232.059 102 242 102H374C383.941 102 392 110.059 392 120V200C392 209.941 383.941 218 374 218H242C232.059 218 224 209.941 224 200V120Z" fill="#0EA5E9" fill-opacity="0.15"/>
  <rect x="240" y="140" width="32" height="76" rx="8" fill="#0EA5E9" opacity="0.9"/>
  <rect x="288" y="140" width="32" height="76" rx="8" fill="#22D3EE" opacity="0.9"/>
  <rect x="336" y="140" width="32" height="76" rx="8" fill="#38BDF8" opacity="0.9"/>
  <circle cx="320" cy="118" r="10" fill="#38BDF8"/>
  <path d="M320 118L332 98" stroke="#38BDF8" stroke-width="4" stroke-linecap="round"/>
  <path d="M320 118L308 98" stroke="#38BDF8" stroke-width="4" stroke-linecap="round"/>
</svg>
