<svg width="220" height="60" viewBox="0 0 220 60" fill="none" xmlns="http://www.w3.org/2000/svg">
  <rect width="220" height="60" rx="18" fill="#0B3D91"/>
  <rect x="4" y="4" width="84" height="52" rx="14" fill="#FFFFFF" opacity="0.08"/>
  <path d="M24 41C33 30 46 25 46 18C46 11 39.5 6 31 6C22.5 6 16 11 16 19.5C16 28 22 34 32 40L24 41Z" fill="#FF6B00" opacity="0.85"/>
  <path d="M40 17.8C39.3 17.2 38 16.8 36.8 16.8C34.1 16.8 32 18.7 32 21.4C32 24.1 34.1 26 36.8 26C38 26 39.2 25.6 39.9 25.1C39.5 27.4 37.2 29.3 34.4 29.3C33.1 29.3 31.8 28.8 30.9 28L28.9 31.4C30.5 32.7 32.7 33.5 34.9 33.5C40.3 33.5 44.9 29.5 44.9 23C44.9 20.3 44 18.2 42.6 16.8L40 17.8Z" fill="#FFFFFF"/>
  <path d="M54 19H66.5C72.1 19 76 22.4 76 27.4C76 32.5 72.1 36 66.5 36H54V19ZM59.2 24.1V31.1H65.6C67.8 31.1 69.3 29.9 69.3 27.4C69.3 25 67.8 24.1 65.6 24.1H59.2Z" fill="#FFFFFF"/>
  <text x="96" y="36" font-family="Poppins, Arial, sans-serif" font-size="18" font-weight="700" letter-spacing="0.08em" fill="#FFFFFF">
    BBD INFRA
  </text>
  <text x="96" y="48" font-family="Poppins, Arial, sans-serif" font-size="10" font-weight="500" letter-spacing="0.28em" fill="#FFBE8A">
    BALAJI LEGACY
  </text>
</svg>
